<mxfile host="app.diagrams.net" modified="2023-08-28T22:08:20.152Z" agent="Mozilla/5.0 (Windows NT 10.0; Win64; x64) AppleWebKit/537.36 (KHTML, like Gecko) Chrome/116.0.0.0 Safari/537.36" etag="eYzBwpWc7DRhiC_o773t" version="21.6.9" type="github" pages="3">
  <diagram name="Esquema1" id="fouPwO5cO5OasUWHvbUF">
    <mxGraphModel dx="2501" dy="790" grid="1" gridSize="10" guides="1" tooltips="1" connect="1" arrows="1" fold="1" page="1" pageScale="1" pageWidth="827" pageHeight="1169" math="0" shadow="0">
      <root>
        <mxCell id="0" />
        <mxCell id="1" parent="0" />
        <mxCell id="4f01WHKHeMReldq4Eaw4-1" value="PROYECTOS SOLICITADOS" style="whiteSpace=wrap;html=1;aspect=fixed;" parent="1" vertex="1">
          <mxGeometry x="-240" y="140" width="80" height="80" as="geometry" />
        </mxCell>
        <mxCell id="4f01WHKHeMReldq4Eaw4-2" value="TIEMPO" style="whiteSpace=wrap;html=1;aspect=fixed;" parent="1" vertex="1">
          <mxGeometry x="-130" width="90" height="90" as="geometry" />
        </mxCell>
        <mxCell id="4f01WHKHeMReldq4Eaw4-3" value="CLIENTE" style="whiteSpace=wrap;html=1;aspect=fixed;" parent="1" vertex="1">
          <mxGeometry x="-124" y="256" width="94" height="94" as="geometry" />
        </mxCell>
        <mxCell id="4f01WHKHeMReldq4Eaw4-4" value="PROYECTOS" style="whiteSpace=wrap;html=1;aspect=fixed;" parent="1" vertex="1">
          <mxGeometry x="-380" width="100" height="100" as="geometry" />
        </mxCell>
        <mxCell id="4f01WHKHeMReldq4Eaw4-5" value="CONSULTORES" style="whiteSpace=wrap;html=1;aspect=fixed;" parent="1" vertex="1">
          <mxGeometry x="-380" y="250" width="100" height="100" as="geometry" />
        </mxCell>
        <mxCell id="4f01WHKHeMReldq4Eaw4-9" style="rounded=0;orthogonalLoop=1;jettySize=auto;html=1;" parent="1" source="4f01WHKHeMReldq4Eaw4-1" target="4f01WHKHeMReldq4Eaw4-3" edge="1">
          <mxGeometry relative="1" as="geometry">
            <mxPoint x="-259" y="130" as="sourcePoint" />
            <mxPoint x="-210" y="190" as="targetPoint" />
          </mxGeometry>
        </mxCell>
        <mxCell id="4f01WHKHeMReldq4Eaw4-10" value="En este esquema se analiza la cantidad de proyectos que han sido solicitados por los clientes. Esto con la finalidad de medir el progreso de la empresa desde sus inicios hasta la actualidad.&amp;nbsp;&lt;br&gt;Tener la posibilidad de medir si a lo largo de los años las ganancias han sido mayores a las pérdidas" style="text;html=1;strokeColor=none;fillColor=none;align=center;verticalAlign=middle;whiteSpace=wrap;rounded=0;" parent="1" vertex="1">
          <mxGeometry x="-413" y="490" width="440" height="60" as="geometry" />
        </mxCell>
        <mxCell id="YIXBxobENtzoKiSDBQd0-1" value="FACT_PROYECTOSREALIZADOS" style="swimlane;fontStyle=0;childLayout=stackLayout;horizontal=1;startSize=30;horizontalStack=0;resizeParent=1;resizeParentMax=0;resizeLast=0;collapsible=1;marginBottom=0;whiteSpace=wrap;html=1;" parent="1" vertex="1">
          <mxGeometry x="480" y="300" width="250" height="360" as="geometry" />
        </mxCell>
        <mxCell id="YIXBxobENtzoKiSDBQd0-2" value="ID_PROYECTO(FK)" style="text;strokeColor=none;fillColor=#B5739D;align=left;verticalAlign=middle;spacingLeft=4;spacingRight=4;overflow=hidden;points=[[0,0.5],[1,0.5]];portConstraint=eastwest;rotatable=0;whiteSpace=wrap;html=1;" parent="YIXBxobENtzoKiSDBQd0-1" vertex="1">
          <mxGeometry y="30" width="250" height="30" as="geometry" />
        </mxCell>
        <mxCell id="YIXBxobENtzoKiSDBQd0-3" value="ID_TRABAJADOR(FK)" style="text;strokeColor=none;fillColor=#B5739D;align=left;verticalAlign=middle;spacingLeft=4;spacingRight=4;overflow=hidden;points=[[0,0.5],[1,0.5]];portConstraint=eastwest;rotatable=0;whiteSpace=wrap;html=1;" parent="YIXBxobENtzoKiSDBQd0-1" vertex="1">
          <mxGeometry y="60" width="250" height="30" as="geometry" />
        </mxCell>
        <mxCell id="YIXBxobENtzoKiSDBQd0-30" value="ID_CLIENTE(FK)" style="text;strokeColor=none;fillColor=#B5739D;align=left;verticalAlign=middle;spacingLeft=4;spacingRight=4;overflow=hidden;points=[[0,0.5],[1,0.5]];portConstraint=eastwest;rotatable=0;whiteSpace=wrap;html=1;" parent="YIXBxobENtzoKiSDBQd0-1" vertex="1">
          <mxGeometry y="90" width="250" height="30" as="geometry" />
        </mxCell>
        <mxCell id="YIXBxobENtzoKiSDBQd0-29" value="ID_TIEMPO(FK)" style="text;strokeColor=none;fillColor=#B5739D;align=left;verticalAlign=middle;spacingLeft=4;spacingRight=4;overflow=hidden;points=[[0,0.5],[1,0.5]];portConstraint=eastwest;rotatable=0;whiteSpace=wrap;html=1;" parent="YIXBxobENtzoKiSDBQd0-1" vertex="1">
          <mxGeometry y="120" width="250" height="30" as="geometry" />
        </mxCell>
        <mxCell id="YIXBxobENtzoKiSDBQd0-31" value="&lt;u&gt;Nombre&lt;/u&gt;" style="text;strokeColor=none;fillColor=none;align=left;verticalAlign=middle;spacingLeft=4;spacingRight=4;overflow=hidden;points=[[0,0.5],[1,0.5]];portConstraint=eastwest;rotatable=0;whiteSpace=wrap;html=1;" parent="YIXBxobENtzoKiSDBQd0-1" vertex="1">
          <mxGeometry y="150" width="250" height="30" as="geometry" />
        </mxCell>
        <mxCell id="0sV7bS2kD5tdpcHUCogC-12" value="Solicitud" style="text;strokeColor=none;fillColor=none;align=left;verticalAlign=middle;spacingLeft=4;spacingRight=4;overflow=hidden;points=[[0,0.5],[1,0.5]];portConstraint=eastwest;rotatable=0;whiteSpace=wrap;html=1;" parent="YIXBxobENtzoKiSDBQd0-1" vertex="1">
          <mxGeometry y="180" width="250" height="30" as="geometry" />
        </mxCell>
        <mxCell id="0sV7bS2kD5tdpcHUCogC-16" value="Unidad de proyectos" style="text;strokeColor=none;fillColor=none;align=left;verticalAlign=middle;spacingLeft=4;spacingRight=4;overflow=hidden;points=[[0,0.5],[1,0.5]];portConstraint=eastwest;rotatable=0;whiteSpace=wrap;html=1;" parent="YIXBxobENtzoKiSDBQd0-1" vertex="1">
          <mxGeometry y="210" width="250" height="30" as="geometry" />
        </mxCell>
        <mxCell id="0sV7bS2kD5tdpcHUCogC-11" value="Tipo" style="text;strokeColor=none;fillColor=none;align=left;verticalAlign=middle;spacingLeft=4;spacingRight=4;overflow=hidden;points=[[0,0.5],[1,0.5]];portConstraint=eastwest;rotatable=0;whiteSpace=wrap;html=1;" parent="YIXBxobENtzoKiSDBQd0-1" vertex="1">
          <mxGeometry y="240" width="250" height="30" as="geometry" />
        </mxCell>
        <mxCell id="YIXBxobENtzoKiSDBQd0-32" value="Ganancias" style="text;strokeColor=none;fillColor=none;align=left;verticalAlign=middle;spacingLeft=4;spacingRight=4;overflow=hidden;points=[[0,0.5],[1,0.5]];portConstraint=eastwest;rotatable=0;whiteSpace=wrap;html=1;" parent="YIXBxobENtzoKiSDBQd0-1" vertex="1">
          <mxGeometry y="270" width="250" height="30" as="geometry" />
        </mxCell>
        <mxCell id="K5586gnL4aPKgmynBAE0-1" value="Pèrdidas" style="text;strokeColor=none;fillColor=none;align=left;verticalAlign=middle;spacingLeft=4;spacingRight=4;overflow=hidden;points=[[0,0.5],[1,0.5]];portConstraint=eastwest;rotatable=0;whiteSpace=wrap;html=1;" parent="YIXBxobENtzoKiSDBQd0-1" vertex="1">
          <mxGeometry y="300" width="250" height="30" as="geometry" />
        </mxCell>
        <mxCell id="YIXBxobENtzoKiSDBQd0-4" value="Total proyectos" style="text;strokeColor=none;fillColor=none;align=left;verticalAlign=middle;spacingLeft=4;spacingRight=4;overflow=hidden;points=[[0,0.5],[1,0.5]];portConstraint=eastwest;rotatable=0;whiteSpace=wrap;html=1;" parent="YIXBxobENtzoKiSDBQd0-1" vertex="1">
          <mxGeometry y="330" width="250" height="30" as="geometry" />
        </mxCell>
        <mxCell id="YIXBxobENtzoKiSDBQd0-5" value="DIM_TIEMPO" style="swimlane;fontStyle=0;childLayout=stackLayout;horizontal=1;startSize=30;horizontalStack=0;resizeParent=1;resizeParentMax=0;resizeLast=0;collapsible=1;marginBottom=0;whiteSpace=wrap;html=1;" parent="1" vertex="1">
          <mxGeometry x="800" y="30" width="260" height="210" as="geometry" />
        </mxCell>
        <mxCell id="YIXBxobENtzoKiSDBQd0-24" value="ID_TIEMPO(PK)" style="text;strokeColor=none;fillColor=#B5739D;align=left;verticalAlign=middle;spacingLeft=4;spacingRight=4;overflow=hidden;points=[[0,0.5],[1,0.5]];portConstraint=eastwest;rotatable=0;whiteSpace=wrap;html=1;" parent="YIXBxobENtzoKiSDBQd0-5" vertex="1">
          <mxGeometry y="30" width="260" height="30" as="geometry" />
        </mxCell>
        <mxCell id="YIXBxobENtzoKiSDBQd0-6" value="AÑO" style="text;strokeColor=none;fillColor=none;align=left;verticalAlign=middle;spacingLeft=4;spacingRight=4;overflow=hidden;points=[[0,0.5],[1,0.5]];portConstraint=eastwest;rotatable=0;whiteSpace=wrap;html=1;" parent="YIXBxobENtzoKiSDBQd0-5" vertex="1">
          <mxGeometry y="60" width="260" height="30" as="geometry" />
        </mxCell>
        <mxCell id="YIXBxobENtzoKiSDBQd0-7" value="MES" style="text;strokeColor=none;fillColor=none;align=left;verticalAlign=middle;spacingLeft=4;spacingRight=4;overflow=hidden;points=[[0,0.5],[1,0.5]];portConstraint=eastwest;rotatable=0;whiteSpace=wrap;html=1;" parent="YIXBxobENtzoKiSDBQd0-5" vertex="1">
          <mxGeometry y="90" width="260" height="30" as="geometry" />
        </mxCell>
        <mxCell id="YIXBxobENtzoKiSDBQd0-8" value="SEMANA" style="text;strokeColor=none;fillColor=none;align=left;verticalAlign=middle;spacingLeft=4;spacingRight=4;overflow=hidden;points=[[0,0.5],[1,0.5]];portConstraint=eastwest;rotatable=0;whiteSpace=wrap;html=1;" parent="YIXBxobENtzoKiSDBQd0-5" vertex="1">
          <mxGeometry y="120" width="260" height="30" as="geometry" />
        </mxCell>
        <mxCell id="YIXBxobENtzoKiSDBQd0-21" value="DIA" style="text;strokeColor=none;fillColor=none;align=left;verticalAlign=middle;spacingLeft=4;spacingRight=4;overflow=hidden;points=[[0,0.5],[1,0.5]];portConstraint=eastwest;rotatable=0;whiteSpace=wrap;html=1;" parent="YIXBxobENtzoKiSDBQd0-5" vertex="1">
          <mxGeometry y="150" width="260" height="30" as="geometry" />
        </mxCell>
        <mxCell id="YIXBxobENtzoKiSDBQd0-22" value="HORA" style="text;strokeColor=none;fillColor=none;align=left;verticalAlign=middle;spacingLeft=4;spacingRight=4;overflow=hidden;points=[[0,0.5],[1,0.5]];portConstraint=eastwest;rotatable=0;whiteSpace=wrap;html=1;" parent="YIXBxobENtzoKiSDBQd0-5" vertex="1">
          <mxGeometry y="180" width="260" height="30" as="geometry" />
        </mxCell>
        <mxCell id="YIXBxobENtzoKiSDBQd0-9" value="DIM_CLIENTE" style="swimlane;fontStyle=0;childLayout=stackLayout;horizontal=1;startSize=30;horizontalStack=0;resizeParent=1;resizeParentMax=0;resizeLast=0;collapsible=1;marginBottom=0;whiteSpace=wrap;html=1;" parent="1" vertex="1">
          <mxGeometry x="810" y="625" width="140" height="210" as="geometry" />
        </mxCell>
        <mxCell id="YIXBxobENtzoKiSDBQd0-10" value="ID_CLIENTE(PK)" style="text;strokeColor=none;fillColor=#B5739D;align=left;verticalAlign=middle;spacingLeft=4;spacingRight=4;overflow=hidden;points=[[0,0.5],[1,0.5]];portConstraint=eastwest;rotatable=0;whiteSpace=wrap;html=1;" parent="YIXBxobENtzoKiSDBQd0-9" vertex="1">
          <mxGeometry y="30" width="140" height="30" as="geometry" />
        </mxCell>
        <mxCell id="YIXBxobENtzoKiSDBQd0-11" value="Nombre" style="text;strokeColor=none;fillColor=none;align=left;verticalAlign=middle;spacingLeft=4;spacingRight=4;overflow=hidden;points=[[0,0.5],[1,0.5]];portConstraint=eastwest;rotatable=0;whiteSpace=wrap;html=1;" parent="YIXBxobENtzoKiSDBQd0-9" vertex="1">
          <mxGeometry y="60" width="140" height="30" as="geometry" />
        </mxCell>
        <mxCell id="0sV7bS2kD5tdpcHUCogC-1" value="Teléfono" style="text;strokeColor=none;fillColor=none;align=left;verticalAlign=middle;spacingLeft=4;spacingRight=4;overflow=hidden;points=[[0,0.5],[1,0.5]];portConstraint=eastwest;rotatable=0;whiteSpace=wrap;html=1;" parent="YIXBxobENtzoKiSDBQd0-9" vertex="1">
          <mxGeometry y="90" width="140" height="30" as="geometry" />
        </mxCell>
        <mxCell id="0sV7bS2kD5tdpcHUCogC-2" value="Contacto" style="text;strokeColor=none;fillColor=none;align=left;verticalAlign=middle;spacingLeft=4;spacingRight=4;overflow=hidden;points=[[0,0.5],[1,0.5]];portConstraint=eastwest;rotatable=0;whiteSpace=wrap;html=1;" parent="YIXBxobENtzoKiSDBQd0-9" vertex="1">
          <mxGeometry y="120" width="140" height="30" as="geometry" />
        </mxCell>
        <mxCell id="0sV7bS2kD5tdpcHUCogC-3" value="Referencias" style="text;strokeColor=none;fillColor=none;align=left;verticalAlign=middle;spacingLeft=4;spacingRight=4;overflow=hidden;points=[[0,0.5],[1,0.5]];portConstraint=eastwest;rotatable=0;whiteSpace=wrap;html=1;" parent="YIXBxobENtzoKiSDBQd0-9" vertex="1">
          <mxGeometry y="150" width="140" height="30" as="geometry" />
        </mxCell>
        <mxCell id="YIXBxobENtzoKiSDBQd0-12" value="Preferencias" style="text;strokeColor=none;fillColor=none;align=left;verticalAlign=middle;spacingLeft=4;spacingRight=4;overflow=hidden;points=[[0,0.5],[1,0.5]];portConstraint=eastwest;rotatable=0;whiteSpace=wrap;html=1;" parent="YIXBxobENtzoKiSDBQd0-9" vertex="1">
          <mxGeometry y="180" width="140" height="30" as="geometry" />
        </mxCell>
        <mxCell id="YIXBxobENtzoKiSDBQd0-13" value="DIM_TRABAJADORES" style="swimlane;fontStyle=0;childLayout=stackLayout;horizontal=1;startSize=30;horizontalStack=0;resizeParent=1;resizeParentMax=0;resizeLast=0;collapsible=1;marginBottom=0;whiteSpace=wrap;html=1;" parent="1" vertex="1">
          <mxGeometry x="260" y="625" width="140" height="210" as="geometry" />
        </mxCell>
        <mxCell id="YIXBxobENtzoKiSDBQd0-14" value="ID_TRABAJADOR(PK)" style="text;strokeColor=none;fillColor=#B5739D;align=left;verticalAlign=middle;spacingLeft=4;spacingRight=4;overflow=hidden;points=[[0,0.5],[1,0.5]];portConstraint=eastwest;rotatable=0;whiteSpace=wrap;html=1;" parent="YIXBxobENtzoKiSDBQd0-13" vertex="1">
          <mxGeometry y="30" width="140" height="30" as="geometry" />
        </mxCell>
        <mxCell id="YIXBxobENtzoKiSDBQd0-15" value="Nombre" style="text;strokeColor=none;fillColor=none;align=left;verticalAlign=middle;spacingLeft=4;spacingRight=4;overflow=hidden;points=[[0,0.5],[1,0.5]];portConstraint=eastwest;rotatable=0;whiteSpace=wrap;html=1;" parent="YIXBxobENtzoKiSDBQd0-13" vertex="1">
          <mxGeometry y="60" width="140" height="30" as="geometry" />
        </mxCell>
        <mxCell id="0sV7bS2kD5tdpcHUCogC-15" value="Estado" style="text;strokeColor=none;fillColor=none;align=left;verticalAlign=middle;spacingLeft=4;spacingRight=4;overflow=hidden;points=[[0,0.5],[1,0.5]];portConstraint=eastwest;rotatable=0;whiteSpace=wrap;html=1;" parent="YIXBxobENtzoKiSDBQd0-13" vertex="1">
          <mxGeometry y="90" width="140" height="30" as="geometry" />
        </mxCell>
        <mxCell id="0sV7bS2kD5tdpcHUCogC-14" value="Telefono" style="text;strokeColor=none;fillColor=none;align=left;verticalAlign=middle;spacingLeft=4;spacingRight=4;overflow=hidden;points=[[0,0.5],[1,0.5]];portConstraint=eastwest;rotatable=0;whiteSpace=wrap;html=1;" parent="YIXBxobENtzoKiSDBQd0-13" vertex="1">
          <mxGeometry y="120" width="140" height="30" as="geometry" />
        </mxCell>
        <mxCell id="0sV7bS2kD5tdpcHUCogC-13" value="Correo" style="text;strokeColor=none;fillColor=none;align=left;verticalAlign=middle;spacingLeft=4;spacingRight=4;overflow=hidden;points=[[0,0.5],[1,0.5]];portConstraint=eastwest;rotatable=0;whiteSpace=wrap;html=1;" parent="YIXBxobENtzoKiSDBQd0-13" vertex="1">
          <mxGeometry y="150" width="140" height="30" as="geometry" />
        </mxCell>
        <mxCell id="YIXBxobENtzoKiSDBQd0-16" value="Domicilio" style="text;strokeColor=none;fillColor=none;align=left;verticalAlign=middle;spacingLeft=4;spacingRight=4;overflow=hidden;points=[[0,0.5],[1,0.5]];portConstraint=eastwest;rotatable=0;whiteSpace=wrap;html=1;" parent="YIXBxobENtzoKiSDBQd0-13" vertex="1">
          <mxGeometry y="180" width="140" height="30" as="geometry" />
        </mxCell>
        <mxCell id="YIXBxobENtzoKiSDBQd0-17" value="DIM_PROYECTOS" style="swimlane;fontStyle=0;childLayout=stackLayout;horizontal=1;startSize=30;horizontalStack=0;resizeParent=1;resizeParentMax=0;resizeLast=0;collapsible=1;marginBottom=0;whiteSpace=wrap;html=1;" parent="1" vertex="1">
          <mxGeometry x="260" y="70" width="140" height="120" as="geometry" />
        </mxCell>
        <mxCell id="YIXBxobENtzoKiSDBQd0-18" value="ID_PROYECTO(PK)" style="text;strokeColor=none;fillColor=#B5739D;align=left;verticalAlign=middle;spacingLeft=4;spacingRight=4;overflow=hidden;points=[[0,0.5],[1,0.5]];portConstraint=eastwest;rotatable=0;whiteSpace=wrap;html=1;" parent="YIXBxobENtzoKiSDBQd0-17" vertex="1">
          <mxGeometry y="30" width="140" height="30" as="geometry" />
        </mxCell>
        <mxCell id="YIXBxobENtzoKiSDBQd0-19" value="nombre" style="text;strokeColor=none;fillColor=none;align=left;verticalAlign=middle;spacingLeft=4;spacingRight=4;overflow=hidden;points=[[0,0.5],[1,0.5]];portConstraint=eastwest;rotatable=0;whiteSpace=wrap;html=1;" parent="YIXBxobENtzoKiSDBQd0-17" vertex="1">
          <mxGeometry y="60" width="140" height="30" as="geometry" />
        </mxCell>
        <mxCell id="YIXBxobENtzoKiSDBQd0-20" value="participantes" style="text;strokeColor=none;fillColor=none;align=left;verticalAlign=middle;spacingLeft=4;spacingRight=4;overflow=hidden;points=[[0,0.5],[1,0.5]];portConstraint=eastwest;rotatable=0;whiteSpace=wrap;html=1;" parent="YIXBxobENtzoKiSDBQd0-17" vertex="1">
          <mxGeometry y="90" width="140" height="30" as="geometry" />
        </mxCell>
        <mxCell id="0sV7bS2kD5tdpcHUCogC-4" style="rounded=0;orthogonalLoop=1;jettySize=auto;html=1;entryX=0;entryY=1;entryDx=0;entryDy=0;exitX=1;exitY=0;exitDx=0;exitDy=0;" parent="1" source="4f01WHKHeMReldq4Eaw4-1" target="4f01WHKHeMReldq4Eaw4-2" edge="1">
          <mxGeometry relative="1" as="geometry">
            <mxPoint x="-150" y="230" as="sourcePoint" />
            <mxPoint x="-114" y="266" as="targetPoint" />
          </mxGeometry>
        </mxCell>
        <mxCell id="0sV7bS2kD5tdpcHUCogC-5" style="rounded=0;orthogonalLoop=1;jettySize=auto;html=1;entryX=1;entryY=1;entryDx=0;entryDy=0;" parent="1" target="4f01WHKHeMReldq4Eaw4-4" edge="1">
          <mxGeometry relative="1" as="geometry">
            <mxPoint x="-240" y="140" as="sourcePoint" />
            <mxPoint x="-104" y="276" as="targetPoint" />
          </mxGeometry>
        </mxCell>
        <mxCell id="0sV7bS2kD5tdpcHUCogC-6" style="rounded=0;orthogonalLoop=1;jettySize=auto;html=1;entryX=1;entryY=0;entryDx=0;entryDy=0;exitX=0;exitY=1;exitDx=0;exitDy=0;" parent="1" source="4f01WHKHeMReldq4Eaw4-1" target="4f01WHKHeMReldq4Eaw4-5" edge="1">
          <mxGeometry relative="1" as="geometry">
            <mxPoint x="-130" y="250" as="sourcePoint" />
            <mxPoint x="-94" y="286" as="targetPoint" />
          </mxGeometry>
        </mxCell>
        <mxCell id="0sV7bS2kD5tdpcHUCogC-7" style="rounded=0;orthogonalLoop=1;jettySize=auto;html=1;entryX=0;entryY=0;entryDx=0;entryDy=0;exitX=1.008;exitY=0.867;exitDx=0;exitDy=0;exitPerimeter=0;" parent="1" source="YIXBxobENtzoKiSDBQd0-4" target="YIXBxobENtzoKiSDBQd0-9" edge="1">
          <mxGeometry relative="1" as="geometry">
            <mxPoint x="730" y="540" as="sourcePoint" />
            <mxPoint x="766" y="576" as="targetPoint" />
          </mxGeometry>
        </mxCell>
        <mxCell id="0sV7bS2kD5tdpcHUCogC-8" style="rounded=0;orthogonalLoop=1;jettySize=auto;html=1;entryX=1;entryY=0;entryDx=0;entryDy=0;exitX=-0.008;exitY=1.067;exitDx=0;exitDy=0;exitPerimeter=0;" parent="1" source="YIXBxobENtzoKiSDBQd0-4" target="YIXBxobENtzoKiSDBQd0-13" edge="1">
          <mxGeometry relative="1" as="geometry">
            <mxPoint x="740" y="550" as="sourcePoint" />
            <mxPoint x="790" y="590" as="targetPoint" />
          </mxGeometry>
        </mxCell>
        <mxCell id="0sV7bS2kD5tdpcHUCogC-9" style="rounded=0;orthogonalLoop=1;jettySize=auto;html=1;entryX=0;entryY=0;entryDx=0;entryDy=0;exitX=1;exitY=0;exitDx=0;exitDy=0;" parent="1" source="YIXBxobENtzoKiSDBQd0-1" target="YIXBxobENtzoKiSDBQd0-5" edge="1">
          <mxGeometry relative="1" as="geometry">
            <mxPoint x="750" y="560" as="sourcePoint" />
            <mxPoint x="800" y="600" as="targetPoint" />
          </mxGeometry>
        </mxCell>
        <mxCell id="0sV7bS2kD5tdpcHUCogC-10" style="rounded=0;orthogonalLoop=1;jettySize=auto;html=1;entryX=0.993;entryY=1.033;entryDx=0;entryDy=0;exitX=0;exitY=0;exitDx=0;exitDy=0;entryPerimeter=0;" parent="1" source="YIXBxobENtzoKiSDBQd0-1" target="YIXBxobENtzoKiSDBQd0-20" edge="1">
          <mxGeometry relative="1" as="geometry">
            <mxPoint x="760" y="570" as="sourcePoint" />
            <mxPoint x="810" y="610" as="targetPoint" />
          </mxGeometry>
        </mxCell>
      </root>
    </mxGraphModel>
  </diagram>
  <diagram name="Esquema 2" id="NuA_AMXU5c78D62TrAVr">
    <mxGraphModel dx="3218" dy="1129" grid="1" gridSize="10" guides="1" tooltips="1" connect="1" arrows="1" fold="1" page="1" pageScale="1" pageWidth="827" pageHeight="1169" math="0" shadow="0">
      <root>
        <mxCell id="j2CwejD4iRpmdjd2Fmt_-0" />
        <mxCell id="j2CwejD4iRpmdjd2Fmt_-1" parent="j2CwejD4iRpmdjd2Fmt_-0" />
        <mxCell id="j2CwejD4iRpmdjd2Fmt_-2" value="TOTAL HABILIDADES" style="whiteSpace=wrap;html=1;aspect=fixed;" parent="j2CwejD4iRpmdjd2Fmt_-1" vertex="1">
          <mxGeometry x="-675" y="140" width="110" height="110" as="geometry" />
        </mxCell>
        <mxCell id="j2CwejD4iRpmdjd2Fmt_-3" value="TIEMPO" style="whiteSpace=wrap;html=1;aspect=fixed;" parent="j2CwejD4iRpmdjd2Fmt_-1" vertex="1">
          <mxGeometry x="-550" width="110" height="110" as="geometry" />
        </mxCell>
        <mxCell id="j2CwejD4iRpmdjd2Fmt_-4" value="HABILIDADES" style="whiteSpace=wrap;html=1;aspect=fixed;" parent="j2CwejD4iRpmdjd2Fmt_-1" vertex="1">
          <mxGeometry x="-544" y="276" width="104" height="104" as="geometry" />
        </mxCell>
        <mxCell id="j2CwejD4iRpmdjd2Fmt_-5" style="rounded=0;orthogonalLoop=1;jettySize=auto;html=1;" parent="j2CwejD4iRpmdjd2Fmt_-1" source="j2CwejD4iRpmdjd2Fmt_-6" target="j2CwejD4iRpmdjd2Fmt_-2" edge="1">
          <mxGeometry relative="1" as="geometry" />
        </mxCell>
        <mxCell id="j2CwejD4iRpmdjd2Fmt_-6" value="DEPARTAMENTOS" style="whiteSpace=wrap;html=1;aspect=fixed;" parent="j2CwejD4iRpmdjd2Fmt_-1" vertex="1">
          <mxGeometry x="-820" width="120" height="120" as="geometry" />
        </mxCell>
        <mxCell id="j2CwejD4iRpmdjd2Fmt_-7" value="TRABAJADOR" style="whiteSpace=wrap;html=1;aspect=fixed;" parent="j2CwejD4iRpmdjd2Fmt_-1" vertex="1">
          <mxGeometry x="-810" y="276" width="110" height="110" as="geometry" />
        </mxCell>
        <mxCell id="j2CwejD4iRpmdjd2Fmt_-8" style="rounded=0;orthogonalLoop=1;jettySize=auto;html=1;entryX=1.013;entryY=0.15;entryDx=0;entryDy=0;entryPerimeter=0;" parent="j2CwejD4iRpmdjd2Fmt_-1" source="j2CwejD4iRpmdjd2Fmt_-3" target="j2CwejD4iRpmdjd2Fmt_-2" edge="1">
          <mxGeometry relative="1" as="geometry">
            <mxPoint x="-699" y="130" as="sourcePoint" />
            <mxPoint x="-650" y="190" as="targetPoint" />
            <Array as="points">
              <mxPoint x="-560" y="150" />
            </Array>
          </mxGeometry>
        </mxCell>
        <mxCell id="j2CwejD4iRpmdjd2Fmt_-9" style="rounded=0;orthogonalLoop=1;jettySize=auto;html=1;entryX=0;entryY=1;entryDx=0;entryDy=0;" parent="j2CwejD4iRpmdjd2Fmt_-1" source="j2CwejD4iRpmdjd2Fmt_-7" target="j2CwejD4iRpmdjd2Fmt_-2" edge="1">
          <mxGeometry relative="1" as="geometry">
            <mxPoint x="-689" y="140" as="sourcePoint" />
            <mxPoint x="-640" y="200" as="targetPoint" />
          </mxGeometry>
        </mxCell>
        <mxCell id="j2CwejD4iRpmdjd2Fmt_-10" style="rounded=0;orthogonalLoop=1;jettySize=auto;html=1;entryX=1;entryY=1;entryDx=0;entryDy=0;" parent="j2CwejD4iRpmdjd2Fmt_-1" source="j2CwejD4iRpmdjd2Fmt_-4" target="j2CwejD4iRpmdjd2Fmt_-2" edge="1">
          <mxGeometry relative="1" as="geometry">
            <mxPoint x="-679" y="150" as="sourcePoint" />
            <mxPoint x="-630" y="210" as="targetPoint" />
          </mxGeometry>
        </mxCell>
        <mxCell id="j2CwejD4iRpmdjd2Fmt_-11" value="En este esquema se analiza las habilidades que más sobresalen entre los consultores y trabajadores.&amp;nbsp;" style="text;html=1;strokeColor=none;fillColor=none;align=center;verticalAlign=middle;whiteSpace=wrap;rounded=0;" parent="j2CwejD4iRpmdjd2Fmt_-1" vertex="1">
          <mxGeometry x="-770" y="450" width="300" height="30" as="geometry" />
        </mxCell>
        <mxCell id="KChx6Kg2cipmEtyVFtn7-0" value="FACT_TOTALHABILIDADESSOBRESALIENTES" style="swimlane;fontStyle=0;childLayout=stackLayout;horizontal=1;startSize=30;horizontalStack=0;resizeParent=1;resizeParentMax=0;resizeLast=0;collapsible=1;marginBottom=0;whiteSpace=wrap;html=1;" vertex="1" parent="j2CwejD4iRpmdjd2Fmt_-1">
          <mxGeometry x="-90" y="260" width="280" height="240" as="geometry" />
        </mxCell>
        <mxCell id="KChx6Kg2cipmEtyVFtn7-1" value="ID_TRABAJADOR(FK)" style="text;strokeColor=none;fillColor=#B5739D;align=left;verticalAlign=middle;spacingLeft=4;spacingRight=4;overflow=hidden;points=[[0,0.5],[1,0.5]];portConstraint=eastwest;rotatable=0;whiteSpace=wrap;html=1;" vertex="1" parent="KChx6Kg2cipmEtyVFtn7-0">
          <mxGeometry y="30" width="280" height="30" as="geometry" />
        </mxCell>
        <mxCell id="KChx6Kg2cipmEtyVFtn7-2" value="ID_DEPARTAMENTO(FK)" style="text;strokeColor=none;fillColor=#B5739D;align=left;verticalAlign=middle;spacingLeft=4;spacingRight=4;overflow=hidden;points=[[0,0.5],[1,0.5]];portConstraint=eastwest;rotatable=0;whiteSpace=wrap;html=1;" vertex="1" parent="KChx6Kg2cipmEtyVFtn7-0">
          <mxGeometry y="60" width="280" height="30" as="geometry" />
        </mxCell>
        <mxCell id="KChx6Kg2cipmEtyVFtn7-3" value="ID_HABILIDADES(FK)" style="text;strokeColor=none;fillColor=#B5739D;align=left;verticalAlign=middle;spacingLeft=4;spacingRight=4;overflow=hidden;points=[[0,0.5],[1,0.5]];portConstraint=eastwest;rotatable=0;whiteSpace=wrap;html=1;" vertex="1" parent="KChx6Kg2cipmEtyVFtn7-0">
          <mxGeometry y="90" width="280" height="30" as="geometry" />
        </mxCell>
        <mxCell id="KChx6Kg2cipmEtyVFtn7-4" value="ID_TIEMPO(FK)" style="text;strokeColor=none;fillColor=#B5739D;align=left;verticalAlign=middle;spacingLeft=4;spacingRight=4;overflow=hidden;points=[[0,0.5],[1,0.5]];portConstraint=eastwest;rotatable=0;whiteSpace=wrap;html=1;" vertex="1" parent="KChx6Kg2cipmEtyVFtn7-0">
          <mxGeometry y="120" width="280" height="30" as="geometry" />
        </mxCell>
        <mxCell id="KChx6Kg2cipmEtyVFtn7-5" value="&lt;u&gt;Nombre&lt;/u&gt;" style="text;strokeColor=none;fillColor=none;align=left;verticalAlign=middle;spacingLeft=4;spacingRight=4;overflow=hidden;points=[[0,0.5],[1,0.5]];portConstraint=eastwest;rotatable=0;whiteSpace=wrap;html=1;" vertex="1" parent="KChx6Kg2cipmEtyVFtn7-0">
          <mxGeometry y="150" width="280" height="30" as="geometry" />
        </mxCell>
        <mxCell id="KChx6Kg2cipmEtyVFtn7-6" value="Cantidad" style="text;strokeColor=none;fillColor=none;align=left;verticalAlign=middle;spacingLeft=4;spacingRight=4;overflow=hidden;points=[[0,0.5],[1,0.5]];portConstraint=eastwest;rotatable=0;whiteSpace=wrap;html=1;" vertex="1" parent="KChx6Kg2cipmEtyVFtn7-0">
          <mxGeometry y="180" width="280" height="30" as="geometry" />
        </mxCell>
        <mxCell id="KChx6Kg2cipmEtyVFtn7-7" value="Total habilidades" style="text;strokeColor=none;fillColor=none;align=left;verticalAlign=middle;spacingLeft=4;spacingRight=4;overflow=hidden;points=[[0,0.5],[1,0.5]];portConstraint=eastwest;rotatable=0;whiteSpace=wrap;html=1;" vertex="1" parent="KChx6Kg2cipmEtyVFtn7-0">
          <mxGeometry y="210" width="280" height="30" as="geometry" />
        </mxCell>
        <mxCell id="KChx6Kg2cipmEtyVFtn7-11" value="DIM_TIEMPO" style="swimlane;fontStyle=0;childLayout=stackLayout;horizontal=1;startSize=30;horizontalStack=0;resizeParent=1;resizeParentMax=0;resizeLast=0;collapsible=1;marginBottom=0;whiteSpace=wrap;html=1;" vertex="1" parent="j2CwejD4iRpmdjd2Fmt_-1">
          <mxGeometry x="250" width="260" height="210" as="geometry" />
        </mxCell>
        <mxCell id="KChx6Kg2cipmEtyVFtn7-12" value="ID_TIEMPO(PK)" style="text;strokeColor=none;fillColor=#B5739D;align=left;verticalAlign=middle;spacingLeft=4;spacingRight=4;overflow=hidden;points=[[0,0.5],[1,0.5]];portConstraint=eastwest;rotatable=0;whiteSpace=wrap;html=1;" vertex="1" parent="KChx6Kg2cipmEtyVFtn7-11">
          <mxGeometry y="30" width="260" height="30" as="geometry" />
        </mxCell>
        <mxCell id="KChx6Kg2cipmEtyVFtn7-13" value="AÑO" style="text;strokeColor=none;fillColor=none;align=left;verticalAlign=middle;spacingLeft=4;spacingRight=4;overflow=hidden;points=[[0,0.5],[1,0.5]];portConstraint=eastwest;rotatable=0;whiteSpace=wrap;html=1;" vertex="1" parent="KChx6Kg2cipmEtyVFtn7-11">
          <mxGeometry y="60" width="260" height="30" as="geometry" />
        </mxCell>
        <mxCell id="KChx6Kg2cipmEtyVFtn7-14" value="MES" style="text;strokeColor=none;fillColor=none;align=left;verticalAlign=middle;spacingLeft=4;spacingRight=4;overflow=hidden;points=[[0,0.5],[1,0.5]];portConstraint=eastwest;rotatable=0;whiteSpace=wrap;html=1;" vertex="1" parent="KChx6Kg2cipmEtyVFtn7-11">
          <mxGeometry y="90" width="260" height="30" as="geometry" />
        </mxCell>
        <mxCell id="KChx6Kg2cipmEtyVFtn7-15" value="SEMANA" style="text;strokeColor=none;fillColor=none;align=left;verticalAlign=middle;spacingLeft=4;spacingRight=4;overflow=hidden;points=[[0,0.5],[1,0.5]];portConstraint=eastwest;rotatable=0;whiteSpace=wrap;html=1;" vertex="1" parent="KChx6Kg2cipmEtyVFtn7-11">
          <mxGeometry y="120" width="260" height="30" as="geometry" />
        </mxCell>
        <mxCell id="KChx6Kg2cipmEtyVFtn7-16" value="DIA" style="text;strokeColor=none;fillColor=none;align=left;verticalAlign=middle;spacingLeft=4;spacingRight=4;overflow=hidden;points=[[0,0.5],[1,0.5]];portConstraint=eastwest;rotatable=0;whiteSpace=wrap;html=1;" vertex="1" parent="KChx6Kg2cipmEtyVFtn7-11">
          <mxGeometry y="150" width="260" height="30" as="geometry" />
        </mxCell>
        <mxCell id="KChx6Kg2cipmEtyVFtn7-17" value="HORA" style="text;strokeColor=none;fillColor=none;align=left;verticalAlign=middle;spacingLeft=4;spacingRight=4;overflow=hidden;points=[[0,0.5],[1,0.5]];portConstraint=eastwest;rotatable=0;whiteSpace=wrap;html=1;" vertex="1" parent="KChx6Kg2cipmEtyVFtn7-11">
          <mxGeometry y="180" width="260" height="30" as="geometry" />
        </mxCell>
        <mxCell id="KChx6Kg2cipmEtyVFtn7-18" value="DIM_HABILIDADES" style="swimlane;fontStyle=0;childLayout=stackLayout;horizontal=1;startSize=30;horizontalStack=0;resizeParent=1;resizeParentMax=0;resizeLast=0;collapsible=1;marginBottom=0;whiteSpace=wrap;html=1;" vertex="1" parent="j2CwejD4iRpmdjd2Fmt_-1">
          <mxGeometry x="270" y="630" width="140" height="150" as="geometry" />
        </mxCell>
        <mxCell id="KChx6Kg2cipmEtyVFtn7-19" value="ID_CLIENTE(PK)" style="text;strokeColor=none;fillColor=#B5739D;align=left;verticalAlign=middle;spacingLeft=4;spacingRight=4;overflow=hidden;points=[[0,0.5],[1,0.5]];portConstraint=eastwest;rotatable=0;whiteSpace=wrap;html=1;" vertex="1" parent="KChx6Kg2cipmEtyVFtn7-18">
          <mxGeometry y="30" width="140" height="30" as="geometry" />
        </mxCell>
        <mxCell id="KChx6Kg2cipmEtyVFtn7-20" value="Nombre" style="text;strokeColor=none;fillColor=none;align=left;verticalAlign=middle;spacingLeft=4;spacingRight=4;overflow=hidden;points=[[0,0.5],[1,0.5]];portConstraint=eastwest;rotatable=0;whiteSpace=wrap;html=1;" vertex="1" parent="KChx6Kg2cipmEtyVFtn7-18">
          <mxGeometry y="60" width="140" height="30" as="geometry" />
        </mxCell>
        <mxCell id="KChx6Kg2cipmEtyVFtn7-21" value="Certificacion" style="text;strokeColor=none;fillColor=none;align=left;verticalAlign=middle;spacingLeft=4;spacingRight=4;overflow=hidden;points=[[0,0.5],[1,0.5]];portConstraint=eastwest;rotatable=0;whiteSpace=wrap;html=1;" vertex="1" parent="KChx6Kg2cipmEtyVFtn7-18">
          <mxGeometry y="90" width="140" height="30" as="geometry" />
        </mxCell>
        <mxCell id="KChx6Kg2cipmEtyVFtn7-23" value="Referencias" style="text;strokeColor=none;fillColor=none;align=left;verticalAlign=middle;spacingLeft=4;spacingRight=4;overflow=hidden;points=[[0,0.5],[1,0.5]];portConstraint=eastwest;rotatable=0;whiteSpace=wrap;html=1;" vertex="1" parent="KChx6Kg2cipmEtyVFtn7-18">
          <mxGeometry y="120" width="140" height="30" as="geometry" />
        </mxCell>
        <mxCell id="KChx6Kg2cipmEtyVFtn7-25" value="DIM_TRABAJADOR" style="swimlane;fontStyle=0;childLayout=stackLayout;horizontal=1;startSize=30;horizontalStack=0;resizeParent=1;resizeParentMax=0;resizeLast=0;collapsible=1;marginBottom=0;whiteSpace=wrap;html=1;" vertex="1" parent="j2CwejD4iRpmdjd2Fmt_-1">
          <mxGeometry x="-290" y="620" width="140" height="240" as="geometry" />
        </mxCell>
        <mxCell id="KChx6Kg2cipmEtyVFtn7-26" value="ID_TRABAJADOR(PK)" style="text;strokeColor=none;fillColor=#B5739D;align=left;verticalAlign=middle;spacingLeft=4;spacingRight=4;overflow=hidden;points=[[0,0.5],[1,0.5]];portConstraint=eastwest;rotatable=0;whiteSpace=wrap;html=1;" vertex="1" parent="KChx6Kg2cipmEtyVFtn7-25">
          <mxGeometry y="30" width="140" height="30" as="geometry" />
        </mxCell>
        <mxCell id="KChx6Kg2cipmEtyVFtn7-27" value="Nombre" style="text;strokeColor=none;fillColor=none;align=left;verticalAlign=middle;spacingLeft=4;spacingRight=4;overflow=hidden;points=[[0,0.5],[1,0.5]];portConstraint=eastwest;rotatable=0;whiteSpace=wrap;html=1;" vertex="1" parent="KChx6Kg2cipmEtyVFtn7-25">
          <mxGeometry y="60" width="140" height="30" as="geometry" />
        </mxCell>
        <mxCell id="KChx6Kg2cipmEtyVFtn7-28" value="Estado" style="text;strokeColor=none;fillColor=none;align=left;verticalAlign=middle;spacingLeft=4;spacingRight=4;overflow=hidden;points=[[0,0.5],[1,0.5]];portConstraint=eastwest;rotatable=0;whiteSpace=wrap;html=1;" vertex="1" parent="KChx6Kg2cipmEtyVFtn7-25">
          <mxGeometry y="90" width="140" height="30" as="geometry" />
        </mxCell>
        <mxCell id="L9PxBRu__Qh9WX77Yk-u-0" value="Certificacion" style="text;strokeColor=none;fillColor=none;align=left;verticalAlign=middle;spacingLeft=4;spacingRight=4;overflow=hidden;points=[[0,0.5],[1,0.5]];portConstraint=eastwest;rotatable=0;whiteSpace=wrap;html=1;" vertex="1" parent="KChx6Kg2cipmEtyVFtn7-25">
          <mxGeometry y="120" width="140" height="30" as="geometry" />
        </mxCell>
        <mxCell id="KChx6Kg2cipmEtyVFtn7-29" value="Telefono" style="text;strokeColor=none;fillColor=none;align=left;verticalAlign=middle;spacingLeft=4;spacingRight=4;overflow=hidden;points=[[0,0.5],[1,0.5]];portConstraint=eastwest;rotatable=0;whiteSpace=wrap;html=1;" vertex="1" parent="KChx6Kg2cipmEtyVFtn7-25">
          <mxGeometry y="150" width="140" height="30" as="geometry" />
        </mxCell>
        <mxCell id="KChx6Kg2cipmEtyVFtn7-30" value="Correo" style="text;strokeColor=none;fillColor=none;align=left;verticalAlign=middle;spacingLeft=4;spacingRight=4;overflow=hidden;points=[[0,0.5],[1,0.5]];portConstraint=eastwest;rotatable=0;whiteSpace=wrap;html=1;" vertex="1" parent="KChx6Kg2cipmEtyVFtn7-25">
          <mxGeometry y="180" width="140" height="30" as="geometry" />
        </mxCell>
        <mxCell id="KChx6Kg2cipmEtyVFtn7-31" value="Domicilio" style="text;strokeColor=none;fillColor=none;align=left;verticalAlign=middle;spacingLeft=4;spacingRight=4;overflow=hidden;points=[[0,0.5],[1,0.5]];portConstraint=eastwest;rotatable=0;whiteSpace=wrap;html=1;" vertex="1" parent="KChx6Kg2cipmEtyVFtn7-25">
          <mxGeometry y="210" width="140" height="30" as="geometry" />
        </mxCell>
        <mxCell id="KChx6Kg2cipmEtyVFtn7-32" value="DIM_DEPARTAMENTO" style="swimlane;fontStyle=0;childLayout=stackLayout;horizontal=1;startSize=30;horizontalStack=0;resizeParent=1;resizeParentMax=0;resizeLast=0;collapsible=1;marginBottom=0;whiteSpace=wrap;html=1;" vertex="1" parent="j2CwejD4iRpmdjd2Fmt_-1">
          <mxGeometry x="-290" y="40" width="170" height="120" as="geometry" />
        </mxCell>
        <mxCell id="KChx6Kg2cipmEtyVFtn7-33" value="ID_DEPARTAMENTO(PK)" style="text;strokeColor=none;fillColor=#B5739D;align=left;verticalAlign=middle;spacingLeft=4;spacingRight=4;overflow=hidden;points=[[0,0.5],[1,0.5]];portConstraint=eastwest;rotatable=0;whiteSpace=wrap;html=1;" vertex="1" parent="KChx6Kg2cipmEtyVFtn7-32">
          <mxGeometry y="30" width="170" height="30" as="geometry" />
        </mxCell>
        <mxCell id="KChx6Kg2cipmEtyVFtn7-34" value="nombre" style="text;strokeColor=none;fillColor=none;align=left;verticalAlign=middle;spacingLeft=4;spacingRight=4;overflow=hidden;points=[[0,0.5],[1,0.5]];portConstraint=eastwest;rotatable=0;whiteSpace=wrap;html=1;" vertex="1" parent="KChx6Kg2cipmEtyVFtn7-32">
          <mxGeometry y="60" width="170" height="30" as="geometry" />
        </mxCell>
        <mxCell id="KChx6Kg2cipmEtyVFtn7-35" value="descripción" style="text;strokeColor=none;fillColor=none;align=left;verticalAlign=middle;spacingLeft=4;spacingRight=4;overflow=hidden;points=[[0,0.5],[1,0.5]];portConstraint=eastwest;rotatable=0;whiteSpace=wrap;html=1;" vertex="1" parent="KChx6Kg2cipmEtyVFtn7-32">
          <mxGeometry y="90" width="170" height="30" as="geometry" />
        </mxCell>
        <mxCell id="KChx6Kg2cipmEtyVFtn7-36" style="rounded=0;orthogonalLoop=1;jettySize=auto;html=1;entryX=0;entryY=0;entryDx=0;entryDy=0;exitX=1.011;exitY=1;exitDx=0;exitDy=0;exitPerimeter=0;" edge="1" parent="j2CwejD4iRpmdjd2Fmt_-1" source="KChx6Kg2cipmEtyVFtn7-7" target="KChx6Kg2cipmEtyVFtn7-18">
          <mxGeometry relative="1" as="geometry">
            <mxPoint x="192.23999999999978" y="586.01" as="sourcePoint" />
            <mxPoint x="216" y="546" as="targetPoint" />
          </mxGeometry>
        </mxCell>
        <mxCell id="KChx6Kg2cipmEtyVFtn7-37" style="rounded=0;orthogonalLoop=1;jettySize=auto;html=1;entryX=1;entryY=0;entryDx=0;entryDy=0;exitX=0.014;exitY=1;exitDx=0;exitDy=0;exitPerimeter=0;" edge="1" parent="j2CwejD4iRpmdjd2Fmt_-1" source="KChx6Kg2cipmEtyVFtn7-7" target="KChx6Kg2cipmEtyVFtn7-25">
          <mxGeometry relative="1" as="geometry">
            <mxPoint x="-92.23999999999978" y="592.01" as="sourcePoint" />
            <mxPoint x="240" y="560" as="targetPoint" />
          </mxGeometry>
        </mxCell>
        <mxCell id="KChx6Kg2cipmEtyVFtn7-38" style="rounded=0;orthogonalLoop=1;jettySize=auto;html=1;entryX=-0.008;entryY=1;entryDx=0;entryDy=0;exitX=1;exitY=0;exitDx=0;exitDy=0;entryPerimeter=0;" edge="1" parent="j2CwejD4iRpmdjd2Fmt_-1" source="KChx6Kg2cipmEtyVFtn7-0" target="KChx6Kg2cipmEtyVFtn7-17">
          <mxGeometry relative="1" as="geometry">
            <mxPoint x="200" y="530" as="sourcePoint" />
            <mxPoint x="250" y="570" as="targetPoint" />
          </mxGeometry>
        </mxCell>
        <mxCell id="KChx6Kg2cipmEtyVFtn7-39" style="rounded=0;orthogonalLoop=1;jettySize=auto;html=1;entryX=0.993;entryY=1.033;entryDx=0;entryDy=0;exitX=0;exitY=0;exitDx=0;exitDy=0;entryPerimeter=0;" edge="1" parent="j2CwejD4iRpmdjd2Fmt_-1" source="KChx6Kg2cipmEtyVFtn7-0" target="KChx6Kg2cipmEtyVFtn7-35">
          <mxGeometry relative="1" as="geometry">
            <mxPoint x="210" y="540" as="sourcePoint" />
            <mxPoint x="260" y="580" as="targetPoint" />
          </mxGeometry>
        </mxCell>
      </root>
    </mxGraphModel>
  </diagram>
  <diagram name="Esquema 3" id="tE4sMd_o-2nNM-WToGft">
    <mxGraphModel dx="2501" dy="790" grid="1" gridSize="10" guides="1" tooltips="1" connect="1" arrows="1" fold="1" page="1" pageScale="1" pageWidth="827" pageHeight="1169" math="0" shadow="0">
      <root>
        <mxCell id="gfd1jEC5PVBZpeTkQ_-1-0" />
        <mxCell id="gfd1jEC5PVBZpeTkQ_-1-1" parent="gfd1jEC5PVBZpeTkQ_-1-0" />
        <mxCell id="gfd1jEC5PVBZpeTkQ_-1-2" value="TOTAL HORAS INVERTIDAS POR PROYECTO" style="whiteSpace=wrap;html=1;aspect=fixed;" parent="gfd1jEC5PVBZpeTkQ_-1-1" vertex="1">
          <mxGeometry x="-670" y="140" width="80" height="80" as="geometry" />
        </mxCell>
        <mxCell id="gfd1jEC5PVBZpeTkQ_-1-3" value="TIEMPO" style="whiteSpace=wrap;html=1;aspect=fixed;" parent="gfd1jEC5PVBZpeTkQ_-1-1" vertex="1">
          <mxGeometry x="-560" width="90" height="90" as="geometry" />
        </mxCell>
        <mxCell id="gfd1jEC5PVBZpeTkQ_-1-4" value="TRABAJADORES" style="whiteSpace=wrap;html=1;aspect=fixed;" parent="gfd1jEC5PVBZpeTkQ_-1-1" vertex="1">
          <mxGeometry x="-554" y="256" width="104" height="104" as="geometry" />
        </mxCell>
        <mxCell id="gfd1jEC5PVBZpeTkQ_-1-5" style="rounded=0;orthogonalLoop=1;jettySize=auto;html=1;" parent="gfd1jEC5PVBZpeTkQ_-1-1" source="gfd1jEC5PVBZpeTkQ_-1-6" target="gfd1jEC5PVBZpeTkQ_-1-2" edge="1">
          <mxGeometry relative="1" as="geometry" />
        </mxCell>
        <mxCell id="gfd1jEC5PVBZpeTkQ_-1-6" value="PROYECTOS" style="whiteSpace=wrap;html=1;aspect=fixed;" parent="gfd1jEC5PVBZpeTkQ_-1-1" vertex="1">
          <mxGeometry x="-810" width="100" height="100" as="geometry" />
        </mxCell>
        <mxCell id="gfd1jEC5PVBZpeTkQ_-1-7" value="CONSULTORES" style="whiteSpace=wrap;html=1;aspect=fixed;" parent="gfd1jEC5PVBZpeTkQ_-1-1" vertex="1">
          <mxGeometry x="-810" y="250" width="100" height="100" as="geometry" />
        </mxCell>
        <mxCell id="gfd1jEC5PVBZpeTkQ_-1-8" style="rounded=0;orthogonalLoop=1;jettySize=auto;html=1;entryX=1.013;entryY=0.15;entryDx=0;entryDy=0;entryPerimeter=0;" parent="gfd1jEC5PVBZpeTkQ_-1-1" source="gfd1jEC5PVBZpeTkQ_-1-3" target="gfd1jEC5PVBZpeTkQ_-1-2" edge="1">
          <mxGeometry relative="1" as="geometry">
            <mxPoint x="-709" y="110" as="sourcePoint" />
            <mxPoint x="-660" y="170" as="targetPoint" />
            <Array as="points">
              <mxPoint x="-570" y="130" />
            </Array>
          </mxGeometry>
        </mxCell>
        <mxCell id="gfd1jEC5PVBZpeTkQ_-1-9" style="rounded=0;orthogonalLoop=1;jettySize=auto;html=1;entryX=0;entryY=1;entryDx=0;entryDy=0;" parent="gfd1jEC5PVBZpeTkQ_-1-1" source="gfd1jEC5PVBZpeTkQ_-1-7" target="gfd1jEC5PVBZpeTkQ_-1-2" edge="1">
          <mxGeometry relative="1" as="geometry">
            <mxPoint x="-699" y="120" as="sourcePoint" />
            <mxPoint x="-650" y="180" as="targetPoint" />
          </mxGeometry>
        </mxCell>
        <mxCell id="gfd1jEC5PVBZpeTkQ_-1-10" style="rounded=0;orthogonalLoop=1;jettySize=auto;html=1;entryX=1;entryY=1;entryDx=0;entryDy=0;" parent="gfd1jEC5PVBZpeTkQ_-1-1" source="gfd1jEC5PVBZpeTkQ_-1-4" target="gfd1jEC5PVBZpeTkQ_-1-2" edge="1">
          <mxGeometry relative="1" as="geometry">
            <mxPoint x="-689" y="130" as="sourcePoint" />
            <mxPoint x="-640" y="190" as="targetPoint" />
          </mxGeometry>
        </mxCell>
        <mxCell id="gfd1jEC5PVBZpeTkQ_-1-11" value="En este esquema se analiza la cantidad de horas trabajadas por proyecto para analizar la eficiencia y eficacia de los trabajadores y el rol administrativo que tiene como responsabilidad el consultor a cargo." style="text;html=1;strokeColor=none;fillColor=none;align=center;verticalAlign=middle;whiteSpace=wrap;rounded=0;" parent="gfd1jEC5PVBZpeTkQ_-1-1" vertex="1">
          <mxGeometry x="-780" y="430" width="300" height="30" as="geometry" />
        </mxCell>
        <mxCell id="PeIsF7K4oiye-8hIxF5R-0" value="FACT_TOTALHORASINVERTIDASPORPROYECTO" style="swimlane;fontStyle=0;childLayout=stackLayout;horizontal=1;startSize=30;horizontalStack=0;resizeParent=1;resizeParentMax=0;resizeLast=0;collapsible=1;marginBottom=0;whiteSpace=wrap;html=1;" vertex="1" parent="gfd1jEC5PVBZpeTkQ_-1-1">
          <mxGeometry x="40" y="290" width="290" height="270" as="geometry" />
        </mxCell>
        <mxCell id="PeIsF7K4oiye-8hIxF5R-1" value="ID_PROYECTO(FK)" style="text;strokeColor=none;fillColor=#B5739D;align=left;verticalAlign=middle;spacingLeft=4;spacingRight=4;overflow=hidden;points=[[0,0.5],[1,0.5]];portConstraint=eastwest;rotatable=0;whiteSpace=wrap;html=1;" vertex="1" parent="PeIsF7K4oiye-8hIxF5R-0">
          <mxGeometry y="30" width="290" height="30" as="geometry" />
        </mxCell>
        <mxCell id="PeIsF7K4oiye-8hIxF5R-2" value="ID_TRABAJADOR(FK)" style="text;strokeColor=none;fillColor=#B5739D;align=left;verticalAlign=middle;spacingLeft=4;spacingRight=4;overflow=hidden;points=[[0,0.5],[1,0.5]];portConstraint=eastwest;rotatable=0;whiteSpace=wrap;html=1;" vertex="1" parent="PeIsF7K4oiye-8hIxF5R-0">
          <mxGeometry y="60" width="290" height="30" as="geometry" />
        </mxCell>
        <mxCell id="PeIsF7K4oiye-8hIxF5R-3" value="ID_CONSULTOR(FK)" style="text;strokeColor=none;fillColor=#B5739D;align=left;verticalAlign=middle;spacingLeft=4;spacingRight=4;overflow=hidden;points=[[0,0.5],[1,0.5]];portConstraint=eastwest;rotatable=0;whiteSpace=wrap;html=1;" vertex="1" parent="PeIsF7K4oiye-8hIxF5R-0">
          <mxGeometry y="90" width="290" height="30" as="geometry" />
        </mxCell>
        <mxCell id="PeIsF7K4oiye-8hIxF5R-4" value="ID_TIEMPO(FK)" style="text;strokeColor=none;fillColor=#B5739D;align=left;verticalAlign=middle;spacingLeft=4;spacingRight=4;overflow=hidden;points=[[0,0.5],[1,0.5]];portConstraint=eastwest;rotatable=0;whiteSpace=wrap;html=1;" vertex="1" parent="PeIsF7K4oiye-8hIxF5R-0">
          <mxGeometry y="120" width="290" height="30" as="geometry" />
        </mxCell>
        <mxCell id="PeIsF7K4oiye-8hIxF5R-5" value="&lt;u&gt;Nombre&lt;/u&gt;" style="text;strokeColor=none;fillColor=none;align=left;verticalAlign=middle;spacingLeft=4;spacingRight=4;overflow=hidden;points=[[0,0.5],[1,0.5]];portConstraint=eastwest;rotatable=0;whiteSpace=wrap;html=1;" vertex="1" parent="PeIsF7K4oiye-8hIxF5R-0">
          <mxGeometry y="150" width="290" height="30" as="geometry" />
        </mxCell>
        <mxCell id="PeIsF7K4oiye-8hIxF5R-6" value="Responsable" style="text;strokeColor=none;fillColor=none;align=left;verticalAlign=middle;spacingLeft=4;spacingRight=4;overflow=hidden;points=[[0,0.5],[1,0.5]];portConstraint=eastwest;rotatable=0;whiteSpace=wrap;html=1;" vertex="1" parent="PeIsF7K4oiye-8hIxF5R-0">
          <mxGeometry y="180" width="290" height="30" as="geometry" />
        </mxCell>
        <mxCell id="PeIsF7K4oiye-8hIxF5R-7" value="Cantidad de horas" style="text;strokeColor=none;fillColor=none;align=left;verticalAlign=middle;spacingLeft=4;spacingRight=4;overflow=hidden;points=[[0,0.5],[1,0.5]];portConstraint=eastwest;rotatable=0;whiteSpace=wrap;html=1;" vertex="1" parent="PeIsF7K4oiye-8hIxF5R-0">
          <mxGeometry y="210" width="290" height="30" as="geometry" />
        </mxCell>
        <mxCell id="PeIsF7K4oiye-8hIxF5R-8" value="Total de horas" style="text;strokeColor=none;fillColor=none;align=left;verticalAlign=middle;spacingLeft=4;spacingRight=4;overflow=hidden;points=[[0,0.5],[1,0.5]];portConstraint=eastwest;rotatable=0;whiteSpace=wrap;html=1;" vertex="1" parent="PeIsF7K4oiye-8hIxF5R-0">
          <mxGeometry y="240" width="290" height="30" as="geometry" />
        </mxCell>
        <mxCell id="PeIsF7K4oiye-8hIxF5R-11" value="DIM_TIEMPO" style="swimlane;fontStyle=0;childLayout=stackLayout;horizontal=1;startSize=30;horizontalStack=0;resizeParent=1;resizeParentMax=0;resizeLast=0;collapsible=1;marginBottom=0;whiteSpace=wrap;html=1;" vertex="1" parent="gfd1jEC5PVBZpeTkQ_-1-1">
          <mxGeometry x="380" y="60" width="260" height="210" as="geometry" />
        </mxCell>
        <mxCell id="PeIsF7K4oiye-8hIxF5R-12" value="ID_TIEMPO(PK)" style="text;strokeColor=none;fillColor=#B5739D;align=left;verticalAlign=middle;spacingLeft=4;spacingRight=4;overflow=hidden;points=[[0,0.5],[1,0.5]];portConstraint=eastwest;rotatable=0;whiteSpace=wrap;html=1;" vertex="1" parent="PeIsF7K4oiye-8hIxF5R-11">
          <mxGeometry y="30" width="260" height="30" as="geometry" />
        </mxCell>
        <mxCell id="PeIsF7K4oiye-8hIxF5R-13" value="AÑO" style="text;strokeColor=none;fillColor=none;align=left;verticalAlign=middle;spacingLeft=4;spacingRight=4;overflow=hidden;points=[[0,0.5],[1,0.5]];portConstraint=eastwest;rotatable=0;whiteSpace=wrap;html=1;" vertex="1" parent="PeIsF7K4oiye-8hIxF5R-11">
          <mxGeometry y="60" width="260" height="30" as="geometry" />
        </mxCell>
        <mxCell id="PeIsF7K4oiye-8hIxF5R-14" value="MES" style="text;strokeColor=none;fillColor=none;align=left;verticalAlign=middle;spacingLeft=4;spacingRight=4;overflow=hidden;points=[[0,0.5],[1,0.5]];portConstraint=eastwest;rotatable=0;whiteSpace=wrap;html=1;" vertex="1" parent="PeIsF7K4oiye-8hIxF5R-11">
          <mxGeometry y="90" width="260" height="30" as="geometry" />
        </mxCell>
        <mxCell id="PeIsF7K4oiye-8hIxF5R-15" value="SEMANA" style="text;strokeColor=none;fillColor=none;align=left;verticalAlign=middle;spacingLeft=4;spacingRight=4;overflow=hidden;points=[[0,0.5],[1,0.5]];portConstraint=eastwest;rotatable=0;whiteSpace=wrap;html=1;" vertex="1" parent="PeIsF7K4oiye-8hIxF5R-11">
          <mxGeometry y="120" width="260" height="30" as="geometry" />
        </mxCell>
        <mxCell id="PeIsF7K4oiye-8hIxF5R-16" value="DIA" style="text;strokeColor=none;fillColor=none;align=left;verticalAlign=middle;spacingLeft=4;spacingRight=4;overflow=hidden;points=[[0,0.5],[1,0.5]];portConstraint=eastwest;rotatable=0;whiteSpace=wrap;html=1;" vertex="1" parent="PeIsF7K4oiye-8hIxF5R-11">
          <mxGeometry y="150" width="260" height="30" as="geometry" />
        </mxCell>
        <mxCell id="PeIsF7K4oiye-8hIxF5R-17" value="HORA" style="text;strokeColor=none;fillColor=none;align=left;verticalAlign=middle;spacingLeft=4;spacingRight=4;overflow=hidden;points=[[0,0.5],[1,0.5]];portConstraint=eastwest;rotatable=0;whiteSpace=wrap;html=1;" vertex="1" parent="PeIsF7K4oiye-8hIxF5R-11">
          <mxGeometry y="180" width="260" height="30" as="geometry" />
        </mxCell>
        <mxCell id="PeIsF7K4oiye-8hIxF5R-18" value="DIM_CONSULTORES" style="swimlane;fontStyle=0;childLayout=stackLayout;horizontal=1;startSize=30;horizontalStack=0;resizeParent=1;resizeParentMax=0;resizeLast=0;collapsible=1;marginBottom=0;whiteSpace=wrap;html=1;" vertex="1" parent="gfd1jEC5PVBZpeTkQ_-1-1">
          <mxGeometry x="-160" y="600" width="140" height="150" as="geometry" />
        </mxCell>
        <mxCell id="PeIsF7K4oiye-8hIxF5R-19" value="ID_CONSULTOR(PK)" style="text;strokeColor=none;fillColor=#B5739D;align=left;verticalAlign=middle;spacingLeft=4;spacingRight=4;overflow=hidden;points=[[0,0.5],[1,0.5]];portConstraint=eastwest;rotatable=0;whiteSpace=wrap;html=1;" vertex="1" parent="PeIsF7K4oiye-8hIxF5R-18">
          <mxGeometry y="30" width="140" height="30" as="geometry" />
        </mxCell>
        <mxCell id="PeIsF7K4oiye-8hIxF5R-20" value="Nombre" style="text;strokeColor=none;fillColor=none;align=left;verticalAlign=middle;spacingLeft=4;spacingRight=4;overflow=hidden;points=[[0,0.5],[1,0.5]];portConstraint=eastwest;rotatable=0;whiteSpace=wrap;html=1;" vertex="1" parent="PeIsF7K4oiye-8hIxF5R-18">
          <mxGeometry y="60" width="140" height="30" as="geometry" />
        </mxCell>
        <mxCell id="PeIsF7K4oiye-8hIxF5R-21" value="Proyectos delegados" style="text;strokeColor=none;fillColor=none;align=left;verticalAlign=middle;spacingLeft=4;spacingRight=4;overflow=hidden;points=[[0,0.5],[1,0.5]];portConstraint=eastwest;rotatable=0;whiteSpace=wrap;html=1;" vertex="1" parent="PeIsF7K4oiye-8hIxF5R-18">
          <mxGeometry y="90" width="140" height="30" as="geometry" />
        </mxCell>
        <mxCell id="PeIsF7K4oiye-8hIxF5R-22" value="Cargo" style="text;strokeColor=none;fillColor=none;align=left;verticalAlign=middle;spacingLeft=4;spacingRight=4;overflow=hidden;points=[[0,0.5],[1,0.5]];portConstraint=eastwest;rotatable=0;whiteSpace=wrap;html=1;" vertex="1" parent="PeIsF7K4oiye-8hIxF5R-18">
          <mxGeometry y="120" width="140" height="30" as="geometry" />
        </mxCell>
        <mxCell id="PeIsF7K4oiye-8hIxF5R-25" value="DIM_TRABAJADORES" style="swimlane;fontStyle=0;childLayout=stackLayout;horizontal=1;startSize=30;horizontalStack=0;resizeParent=1;resizeParentMax=0;resizeLast=0;collapsible=1;marginBottom=0;whiteSpace=wrap;html=1;" vertex="1" parent="gfd1jEC5PVBZpeTkQ_-1-1">
          <mxGeometry x="370" y="610" width="140" height="210" as="geometry" />
        </mxCell>
        <mxCell id="PeIsF7K4oiye-8hIxF5R-26" value="ID_TRABAJADOR(PK)" style="text;strokeColor=none;fillColor=#B5739D;align=left;verticalAlign=middle;spacingLeft=4;spacingRight=4;overflow=hidden;points=[[0,0.5],[1,0.5]];portConstraint=eastwest;rotatable=0;whiteSpace=wrap;html=1;" vertex="1" parent="PeIsF7K4oiye-8hIxF5R-25">
          <mxGeometry y="30" width="140" height="30" as="geometry" />
        </mxCell>
        <mxCell id="PeIsF7K4oiye-8hIxF5R-27" value="Nombre" style="text;strokeColor=none;fillColor=none;align=left;verticalAlign=middle;spacingLeft=4;spacingRight=4;overflow=hidden;points=[[0,0.5],[1,0.5]];portConstraint=eastwest;rotatable=0;whiteSpace=wrap;html=1;" vertex="1" parent="PeIsF7K4oiye-8hIxF5R-25">
          <mxGeometry y="60" width="140" height="30" as="geometry" />
        </mxCell>
        <mxCell id="PeIsF7K4oiye-8hIxF5R-28" value="Estado" style="text;strokeColor=none;fillColor=none;align=left;verticalAlign=middle;spacingLeft=4;spacingRight=4;overflow=hidden;points=[[0,0.5],[1,0.5]];portConstraint=eastwest;rotatable=0;whiteSpace=wrap;html=1;" vertex="1" parent="PeIsF7K4oiye-8hIxF5R-25">
          <mxGeometry y="90" width="140" height="30" as="geometry" />
        </mxCell>
        <mxCell id="PeIsF7K4oiye-8hIxF5R-29" value="Telefono" style="text;strokeColor=none;fillColor=none;align=left;verticalAlign=middle;spacingLeft=4;spacingRight=4;overflow=hidden;points=[[0,0.5],[1,0.5]];portConstraint=eastwest;rotatable=0;whiteSpace=wrap;html=1;" vertex="1" parent="PeIsF7K4oiye-8hIxF5R-25">
          <mxGeometry y="120" width="140" height="30" as="geometry" />
        </mxCell>
        <mxCell id="PeIsF7K4oiye-8hIxF5R-30" value="Correo" style="text;strokeColor=none;fillColor=none;align=left;verticalAlign=middle;spacingLeft=4;spacingRight=4;overflow=hidden;points=[[0,0.5],[1,0.5]];portConstraint=eastwest;rotatable=0;whiteSpace=wrap;html=1;" vertex="1" parent="PeIsF7K4oiye-8hIxF5R-25">
          <mxGeometry y="150" width="140" height="30" as="geometry" />
        </mxCell>
        <mxCell id="PeIsF7K4oiye-8hIxF5R-31" value="Domicilio" style="text;strokeColor=none;fillColor=none;align=left;verticalAlign=middle;spacingLeft=4;spacingRight=4;overflow=hidden;points=[[0,0.5],[1,0.5]];portConstraint=eastwest;rotatable=0;whiteSpace=wrap;html=1;" vertex="1" parent="PeIsF7K4oiye-8hIxF5R-25">
          <mxGeometry y="180" width="140" height="30" as="geometry" />
        </mxCell>
        <mxCell id="PeIsF7K4oiye-8hIxF5R-32" value="DIM_PROYECTOS" style="swimlane;fontStyle=0;childLayout=stackLayout;horizontal=1;startSize=30;horizontalStack=0;resizeParent=1;resizeParentMax=0;resizeLast=0;collapsible=1;marginBottom=0;whiteSpace=wrap;html=1;" vertex="1" parent="gfd1jEC5PVBZpeTkQ_-1-1">
          <mxGeometry x="-160" y="100" width="140" height="150" as="geometry" />
        </mxCell>
        <mxCell id="PeIsF7K4oiye-8hIxF5R-33" value="ID_PROYECTO(PK)" style="text;strokeColor=none;fillColor=#B5739D;align=left;verticalAlign=middle;spacingLeft=4;spacingRight=4;overflow=hidden;points=[[0,0.5],[1,0.5]];portConstraint=eastwest;rotatable=0;whiteSpace=wrap;html=1;" vertex="1" parent="PeIsF7K4oiye-8hIxF5R-32">
          <mxGeometry y="30" width="140" height="30" as="geometry" />
        </mxCell>
        <mxCell id="PeIsF7K4oiye-8hIxF5R-34" value="nombre" style="text;strokeColor=none;fillColor=none;align=left;verticalAlign=middle;spacingLeft=4;spacingRight=4;overflow=hidden;points=[[0,0.5],[1,0.5]];portConstraint=eastwest;rotatable=0;whiteSpace=wrap;html=1;" vertex="1" parent="PeIsF7K4oiye-8hIxF5R-32">
          <mxGeometry y="60" width="140" height="30" as="geometry" />
        </mxCell>
        <mxCell id="PeIsF7K4oiye-8hIxF5R-35" value="caracterísiticas" style="text;strokeColor=none;fillColor=none;align=left;verticalAlign=middle;spacingLeft=4;spacingRight=4;overflow=hidden;points=[[0,0.5],[1,0.5]];portConstraint=eastwest;rotatable=0;whiteSpace=wrap;html=1;" vertex="1" parent="PeIsF7K4oiye-8hIxF5R-32">
          <mxGeometry y="90" width="140" height="30" as="geometry" />
        </mxCell>
        <mxCell id="OfygH_xSJRQ2Z2lKsHNh-0" value="responsable" style="text;strokeColor=none;fillColor=none;align=left;verticalAlign=middle;spacingLeft=4;spacingRight=4;overflow=hidden;points=[[0,0.5],[1,0.5]];portConstraint=eastwest;rotatable=0;whiteSpace=wrap;html=1;" vertex="1" parent="PeIsF7K4oiye-8hIxF5R-32">
          <mxGeometry y="120" width="140" height="30" as="geometry" />
        </mxCell>
        <mxCell id="PeIsF7K4oiye-8hIxF5R-36" style="rounded=0;orthogonalLoop=1;jettySize=auto;html=1;exitX=1.003;exitY=0.9;exitDx=0;exitDy=0;exitPerimeter=0;entryX=0;entryY=0;entryDx=0;entryDy=0;" edge="1" parent="gfd1jEC5PVBZpeTkQ_-1-1" source="PeIsF7K4oiye-8hIxF5R-8" target="PeIsF7K4oiye-8hIxF5R-25">
          <mxGeometry relative="1" as="geometry">
            <mxPoint x="332.32000000000016" y="586.01" as="sourcePoint" />
            <mxPoint x="370" y="660" as="targetPoint" />
          </mxGeometry>
        </mxCell>
        <mxCell id="PeIsF7K4oiye-8hIxF5R-37" style="rounded=0;orthogonalLoop=1;jettySize=auto;html=1;exitX=-0.017;exitY=1.033;exitDx=0;exitDy=0;exitPerimeter=0;entryX=1;entryY=0;entryDx=0;entryDy=0;" edge="1" parent="gfd1jEC5PVBZpeTkQ_-1-1" source="PeIsF7K4oiye-8hIxF5R-8" target="PeIsF7K4oiye-8hIxF5R-18">
          <mxGeometry relative="1" as="geometry">
            <mxPoint x="37.679999999999836" y="592.01" as="sourcePoint" />
            <mxPoint x="-20" y="640" as="targetPoint" />
          </mxGeometry>
        </mxCell>
        <mxCell id="PeIsF7K4oiye-8hIxF5R-38" style="rounded=0;orthogonalLoop=1;jettySize=auto;html=1;entryX=0;entryY=0;entryDx=0;entryDy=0;exitX=1;exitY=0;exitDx=0;exitDy=0;" edge="1" parent="gfd1jEC5PVBZpeTkQ_-1-1" source="PeIsF7K4oiye-8hIxF5R-0" target="PeIsF7K4oiye-8hIxF5R-11">
          <mxGeometry relative="1" as="geometry">
            <mxPoint x="330" y="590" as="sourcePoint" />
            <mxPoint x="380" y="630" as="targetPoint" />
          </mxGeometry>
        </mxCell>
        <mxCell id="PeIsF7K4oiye-8hIxF5R-39" style="rounded=0;orthogonalLoop=1;jettySize=auto;html=1;entryX=0.993;entryY=1.033;entryDx=0;entryDy=0;exitX=0;exitY=0;exitDx=0;exitDy=0;entryPerimeter=0;" edge="1" parent="gfd1jEC5PVBZpeTkQ_-1-1" source="PeIsF7K4oiye-8hIxF5R-0" target="PeIsF7K4oiye-8hIxF5R-35">
          <mxGeometry relative="1" as="geometry">
            <mxPoint x="340" y="600" as="sourcePoint" />
            <mxPoint x="390" y="640" as="targetPoint" />
          </mxGeometry>
        </mxCell>
      </root>
    </mxGraphModel>
  </diagram>
</mxfile>
